# xmcd
#
# Track frame offsets:
#	150
#	30083
#	55823
#	75383
#	100205
#	123328
#	145695
#	170683
#	197330
#	208795
#	219158
#	226283
#	234665
#	262843
#	282995
#	311028
#
# Disc length: 4475 seconds
#
# Revision: 1
# Processed by: cddbd v1.5.1PL0 Copyright (c) Steve Scherf et al.
# Submitted via: CDex 1.50Beta5
#
DISCID=d0117910
DTITLE=Various Artist - BRN vol.15 prism
DYEAR=1900
DGENRE=
TTITLE0=ジェームズ カーナウ/かけがえのない時に
TTITLE1=ジェイムス・L.ホゼイ/コロニアル・コラージュ
TTITLE2=スティーヴン・ヴラ/古代の歌
TTITLE3=ウイリアム・ハイムズ/祝典のために
TTITLE4=ロバート・シェルドン/幻の艦隊
TTITLE5=トマス・タリス/よろこびの賛歌
TTITLE6=スティーヴ・シェイファー/プリズム
TTITLE7=ジェイムズ・バーンズ/ツイン・オークス
TTITLE8=パヴェル・シュタニェク/フェアリー・テイル組曲 1)古城
TTITLE9=2)王女の悲しい歌
TTITLE10=3)狩り
TTITLE11=4)村の日曜日の午後
TTITLE12=マンフレート・シュナイダ-/シティ・インプレッション
TTITLE13=パヴェル・シュタニェク/モラビア組曲1)モラビア草原にて
TTITLE14=2)フォークソングバラード
TTITLE15=3)ダンス:組曲
EXTD=
EXTT0=
EXTT1=
EXTT2=
EXTT3=
EXTT4=
EXTT5=
EXTT6=
EXTT7=
EXTT8=
EXTT9=
EXTT10=
EXTT11=
EXTT12=
EXTT13=
EXTT14=
EXTT15=
PLAYORDER=
